<svg xmlns="http://www.w3.org/2000/svg" viewBox="0 0 1200 630">
  <rect width="1200" height="630" fill="#1a1035"/>
  <circle cx="1020" cy="105" r="250" fill="#2d1f6e" opacity="0.6"/>
  <circle cx="180" cy="530" r="180" fill="#2d1f6e" opacity="0.5"/>
  <rect x="90" y="300" width="120" height="168" rx="6" fill="#e85d4a"/>
  <rect x="90" y="300" width="9" height="168" rx="3" fill="#c94232" opacity="0.8"/>
  <rect x="67" y="328" width="28" height="140" rx="5" fill="#f5a623"/>
  <rect x="210" y="340" width="25" height="128" rx="5" fill="#4ecdc4"/>
  <rect x="970" y="282" width="128" height="178" rx="6" fill="#4ecdc4"/>
  <rect x="970" y="282" width="9" height="178" rx="3" fill="#3ab5ac" opacity="0.8"/>
  <rect x="1098" y="318" width="25" height="142" rx="5" fill="#e85d4a"/>
  <rect x="948" y="310" width="23" height="150" rx="5" fill="#f5a623"/>
  <path d="M390 424 Q480 372 600 380 Q720 372 810 424 L810 506 Q720 460 600 470 Q480 460 390 506 Z" fill="#f9f6ee"/>
  <line x1="600" y1="380" x2="600" y2="470" stroke="#ccc5a8" stroke-width="2"/>
  <line x1="415" y1="428" x2="592" y2="422" stroke="#d0c9b0" stroke-width="1.5" opacity="0.7"/>
  <line x1="411" y1="446" x2="592" y2="440" stroke="#d0c9b0" stroke-width="1.5" opacity="0.7"/>
  <line x1="408" y1="464" x2="592" y2="458" stroke="#d0c9b0" stroke-width="1.5" opacity="0.7"/>
  <line x1="608" y1="422" x2="785" y2="428" stroke="#d0c9b0" stroke-width="1.5" opacity="0.7"/>
  <line x1="608" y1="440" x2="789" y2="446" stroke="#d0c9b0" stroke-width="1.5" opacity="0.7"/>
  <line x1="608" y1="458" x2="792" y2="464" stroke="#d0c9b0" stroke-width="1.5" opacity="0.7"/>
  <rect x="476" y="258" width="248" height="3" rx="1.5" fill="#f5a623" opacity="0.7"/>
  <text x="600" y="200" text-anchor="middle" font-family="Georgia, serif" font-size="82" font-weight="700" fill="#ffffff" letter-spacing="4">BookStore</text>
  <text x="600" y="250" text-anchor="middle" font-family="Arial, sans-serif" font-size="26" fill="#b8a9e8" letter-spacing="8">წიგნების ონლაინ მაღაზია</text>
  <text x="600" y="340" text-anchor="middle" font-family="Arial, sans-serif" font-size="22" fill="#8b7dd4" letter-spacing="2">საქართველო · bookstore.onrender.com</text>
</svg>
